<svg width="25" height="40" viewBox="0 0 25 40" fill="none" xmlns="http://www.w3.org/2000/svg">
<path d="M5.70183 29.1385C5.26183 29.1385 4.84983 29.2385 4.46583 29.4385C4.08983 29.6385 3.75783 29.9185 3.46983 30.2785C3.18983 30.6385 2.96983 31.0665 2.80983 31.5625C2.64983 32.0505 2.56983 32.5865 2.56983 33.1705C2.56983 33.6025 2.62583 33.9865 2.73783 34.3225C2.84983 34.6505 3.00583 34.9265 3.20583 35.1505C3.40583 35.3745 3.64183 35.5465 3.91383 35.6665C4.19383 35.7785 4.49783 35.8345 4.82583 35.8345C5.20183 35.8345 5.53383 35.7825 5.82183 35.6785C6.11783 35.5745 6.40583 35.4505 6.68583 35.3065L6.87783 36.3385C6.58183 36.4745 6.25383 36.5905 5.89383 36.6865C5.53383 36.7825 5.12583 36.8305 4.66983 36.8305C4.17383 36.8305 3.72583 36.7505 3.32583 36.5905C2.92583 36.4305 2.58183 36.1985 2.29383 35.8945C2.00583 35.5905 1.78183 35.2185 1.62183 34.7785C1.46983 34.3305 1.39383 33.8225 1.39383 33.2545C1.39383 32.5345 1.50183 31.8625 1.71783 31.2385C1.93383 30.6145 2.23383 30.0745 2.61783 29.6185C3.00983 29.1625 3.47383 28.8025 4.00983 28.5385C4.55383 28.2745 5.14983 28.1425 5.79783 28.1425C6.27783 28.1425 6.69383 28.2065 7.04583 28.3345C7.40583 28.4625 7.70583 28.5945 7.94583 28.7305L7.42983 29.6665C7.18983 29.5145 6.93783 29.3905 6.67383 29.2945C6.40983 29.1905 6.08583 29.1385 5.70183 29.1385ZM7.6254 34.2265C7.6254 33.6505 7.7214 33.1225 7.9134 32.6425C8.1134 32.1545 8.3894 31.7385 8.7414 31.3945C9.0934 31.0505 9.5134 30.7825 10.0014 30.5905C10.4894 30.3985 11.0214 30.3025 11.5974 30.3025C12.0694 30.3025 12.4814 30.3505 12.8334 30.4465C13.1934 30.5425 13.4894 30.6385 13.7214 30.7345L12.9654 34.9945C12.9574 35.0345 12.9494 35.0825 12.9414 35.1385C12.9414 35.1865 12.9414 35.2385 12.9414 35.2945C12.9414 35.5185 13.0054 35.6785 13.1334 35.7745C13.2614 35.8625 13.4294 35.9065 13.6374 35.9065L13.2654 36.7465C12.8334 36.7465 12.5014 36.6425 12.2694 36.4345C12.0454 36.2265 11.9334 35.8945 11.9334 35.4385C11.7094 35.8225 11.4254 36.1505 11.0814 36.4225C10.7454 36.6945 10.3494 36.8305 9.8934 36.8305C9.5974 36.8305 9.3134 36.7705 9.0414 36.6505C8.7694 36.5305 8.5254 36.3585 8.3094 36.1345C8.1014 35.9105 7.9334 35.6385 7.8054 35.3185C7.6854 34.9905 7.6254 34.6265 7.6254 34.2265ZM12.5334 31.3705C12.3814 31.3225 12.2214 31.2865 12.0534 31.2625C11.8934 31.2305 11.6974 31.2145 11.4654 31.2145C11.0494 31.2145 10.6734 31.2865 10.3374 31.4305C10.0014 31.5745 9.7134 31.7745 9.4734 32.0305C9.2334 32.2865 9.0494 32.5905 8.9214 32.9425C8.7934 33.2945 8.7294 33.6785 8.7294 34.0945C8.7294 34.3825 8.7694 34.6385 8.8494 34.8625C8.9374 35.0785 9.0494 35.2625 9.1854 35.4145C9.3214 35.5665 9.4734 35.6825 9.6414 35.7625C9.8174 35.8345 9.9974 35.8705 10.1814 35.8705C10.4214 35.8705 10.6494 35.8065 10.8654 35.6785C11.0894 35.5505 11.2894 35.3705 11.4654 35.1385C11.6414 34.8985 11.7934 34.6185 11.9214 34.2985C12.0494 33.9705 12.1454 33.6145 12.2094 33.2305L12.5334 31.3705ZM15.699 32.1985C15.707 32.1585 15.711 32.1145 15.711 32.0665C15.719 32.0105 15.723 31.9545 15.723 31.8985C15.723 31.6745 15.659 31.5185 15.531 31.4305C15.403 31.3345 15.235 31.2865 15.027 31.2865L15.399 30.4465C15.831 30.4465 16.159 30.5465 16.383 30.7465C16.607 30.9465 16.719 31.2505 16.719 31.6585V31.8985C16.951 31.3225 17.247 30.9145 17.607 30.6745C17.975 30.4265 18.391 30.3025 18.855 30.3025C19.039 30.3025 19.195 30.3185 19.323 30.3505C19.459 30.3745 19.571 30.4065 19.659 30.4465L19.179 31.5025C19.083 31.4625 18.983 31.4345 18.879 31.4185C18.775 31.4025 18.655 31.3945 18.519 31.3945C18.303 31.3945 18.087 31.4505 17.871 31.5625C17.655 31.6665 17.451 31.8465 17.259 32.1025C17.067 32.3585 16.891 32.6945 16.731 33.1105C16.571 33.5265 16.439 34.0425 16.335 34.6585L15.987 36.6865H14.907L15.699 32.1985ZM20.0406 30.6745H21.1446L21.7206 28.7065H22.5486L22.2006 30.6745H23.9286L23.7726 31.6105H22.0326L21.5286 34.5265C21.4966 34.6865 21.4806 34.8385 21.4806 34.9825C21.4806 35.2625 21.5606 35.4825 21.7206 35.6425C21.8886 35.7945 22.1126 35.8705 22.3926 35.8705C22.6246 35.8705 22.8166 35.8385 22.9686 35.7745C23.1286 35.7025 23.2766 35.6305 23.4126 35.5585L23.5446 36.4945C23.3926 36.5825 23.2006 36.6585 22.9686 36.7225C22.7446 36.7945 22.4926 36.8305 22.2126 36.8305C21.9886 36.8305 21.7686 36.7945 21.5526 36.7225C21.3366 36.6585 21.1446 36.5585 20.9766 36.4225C20.8086 36.2785 20.6726 36.0945 20.5686 35.8705C20.4646 35.6465 20.4126 35.3785 20.4126 35.0665C20.4126 34.9785 20.4166 34.8905 20.4246 34.8025C20.4326 34.7065 20.4446 34.5985 20.4606 34.4785L20.9526 31.6105H19.8846L20.0406 30.6745Z" fill="#181725"/>
<path d="M9.98497 20.5181C9.33642 20.5181 8.71443 20.2604 8.25583 19.8018C7.79724 19.3432 7.5396 18.7212 7.5396 18.0727C7.5396 17.4241 7.79724 16.8021 8.25583 16.3436C8.71443 15.885 9.33642 15.6273 9.98497 15.6273C10.6335 15.6273 11.2555 15.885 11.7141 16.3436C12.1727 16.8021 12.4303 17.4241 12.4303 18.0727C12.4303 18.7212 12.1727 19.3432 11.7141 19.8018C11.2555 20.2604 10.6335 20.5181 9.98497 20.5181ZM18.5437 20.5181C17.8952 20.5181 17.2732 20.2604 16.8146 19.8018C16.356 19.3432 16.0984 18.7212 16.0984 18.0727C16.0984 17.4241 16.356 16.8021 16.8146 16.3436C17.2732 15.885 17.8952 15.6273 18.5437 15.6273C19.1923 15.6273 19.8143 15.885 20.2729 16.3436C20.7315 16.8021 20.9891 17.4241 20.9891 18.0727C20.9891 18.7212 20.7315 19.3432 20.2729 19.8018C19.8143 20.2604 19.1923 20.5181 18.5437 20.5181ZM2.60241 3.30636C2.29718 3.29651 2.00775 3.16834 1.79532 2.94895C1.58289 2.72955 1.46411 2.43614 1.46411 2.13075C1.46411 1.82536 1.58289 1.53195 1.79532 1.31255C2.00775 1.09316 2.29718 0.964984 2.60241 0.955139L4.00972 0.955139C5.11258 0.955139 6.06627 1.72054 6.30592 2.7965L7.83794 9.69487C8.07758 10.7708 9.03127 11.5362 10.1341 11.5362H19.3189L21.082 4.48135H9.65606C9.35371 4.46756 9.06831 4.33774 8.85922 4.11889C8.65014 3.90005 8.53346 3.60903 8.53346 3.30636C8.53346 3.00369 8.65014 2.71266 8.85922 2.49382C9.06831 2.27498 9.35371 2.14516 9.65606 2.13136H21.082C21.4395 2.13125 21.7922 2.21264 22.1135 2.36933C22.4347 2.52603 22.716 2.7539 22.936 3.03564C23.1559 3.31737 23.3088 3.64554 23.3829 3.99521C23.457 4.34488 23.4504 4.70684 23.3636 5.05357L21.6004 12.106C21.4733 12.6149 21.1797 13.0666 20.7663 13.3894C20.3529 13.7122 19.8434 13.8875 19.3189 13.8874H10.1341C9.06404 13.8876 8.02589 13.5227 7.19115 12.8532C6.35642 12.1836 5.77501 11.2494 5.54296 10.2047L4.00972 3.30636H2.60241Z" fill="#181725"/>
</svg>
