<svg width="25" height="40" viewBox="0 0 25 40" fill="none" xmlns="http://www.w3.org/2000/svg">
<path d="M5.89458 28.9722C5.45458 28.9722 5.04258 29.0722 4.65858 29.2722C4.28258 29.4722 3.95058 29.7522 3.66258 30.1122C3.38258 30.4722 3.16258 30.9002 3.00258 31.3962C2.84258 31.8842 2.76258 32.4202 2.76258 33.0042C2.76258 33.4362 2.81858 33.8202 2.93058 34.1562C3.04258 34.4842 3.19858 34.7602 3.39858 34.9842C3.59858 35.2082 3.83458 35.3802 4.10658 35.5002C4.38658 35.6122 4.69058 35.6682 5.01858 35.6682C5.39458 35.6682 5.72658 35.6162 6.01458 35.5122C6.31058 35.4082 6.59858 35.2842 6.87858 35.1402L7.07058 36.1722C6.77458 36.3082 6.44658 36.4242 6.08658 36.5202C5.72658 36.6162 5.31858 36.6642 4.86258 36.6642C4.36658 36.6642 3.91858 36.5842 3.51858 36.4242C3.11858 36.2642 2.77458 36.0322 2.48658 35.7282C2.19858 35.4242 1.97458 35.0522 1.81458 34.6122C1.66258 34.1642 1.58658 33.6562 1.58658 33.0882C1.58658 32.3682 1.69458 31.6962 1.91058 31.0722C2.12658 30.4482 2.42658 29.9082 2.81058 29.4522C3.20258 28.9962 3.66658 28.6362 4.20258 28.3722C4.74658 28.1082 5.34258 27.9762 5.99058 27.9762C6.47058 27.9762 6.88658 28.0402 7.23858 28.1682C7.59858 28.2962 7.89858 28.4282 8.13858 28.5642L7.62258 29.5002C7.38258 29.3482 7.13058 29.2242 6.86658 29.1282C6.60258 29.0242 6.27858 28.9722 5.89458 28.9722ZM7.81815 34.0602C7.81815 33.4842 7.91415 32.9562 8.10615 32.4762C8.30615 31.9882 8.58215 31.5722 8.93415 31.2282C9.28615 30.8842 9.70615 30.6162 10.1941 30.4242C10.6821 30.2322 11.2141 30.1362 11.7901 30.1362C12.2621 30.1362 12.6741 30.1842 13.0261 30.2802C13.3861 30.3762 13.6821 30.4722 13.9141 30.5682L13.1581 34.8282C13.1501 34.8682 13.1421 34.9162 13.1341 34.9722C13.1341 35.0202 13.1341 35.0722 13.1341 35.1282C13.1341 35.3522 13.1981 35.5122 13.3261 35.6082C13.4541 35.6962 13.6221 35.7402 13.8301 35.7402L13.4581 36.5802C13.0261 36.5802 12.6941 36.4762 12.4621 36.2682C12.2381 36.0602 12.1261 35.7282 12.1261 35.2722C11.9021 35.6562 11.6181 35.9842 11.2741 36.2562C10.9381 36.5282 10.5421 36.6642 10.0861 36.6642C9.79015 36.6642 9.50615 36.6042 9.23415 36.4842C8.96215 36.3642 8.71815 36.1922 8.50215 35.9682C8.29415 35.7442 8.12615 35.4722 7.99815 35.1522C7.87815 34.8242 7.81815 34.4602 7.81815 34.0602ZM12.7261 31.2042C12.5741 31.1562 12.4141 31.1202 12.2461 31.0962C12.0861 31.0642 11.8901 31.0482 11.6581 31.0482C11.2421 31.0482 10.8661 31.1202 10.5301 31.2642C10.1941 31.4082 9.90615 31.6082 9.66615 31.8642C9.42615 32.1202 9.24215 32.4242 9.11415 32.7762C8.98615 33.1282 8.92215 33.5122 8.92215 33.9282C8.92215 34.2162 8.96215 34.4722 9.04215 34.6962C9.13015 34.9122 9.24215 35.0962 9.37815 35.2482C9.51415 35.4002 9.66615 35.5162 9.83415 35.5962C10.0101 35.6682 10.1901 35.7042 10.3741 35.7042C10.6141 35.7042 10.8421 35.6402 11.0581 35.5122C11.2821 35.3842 11.4821 35.2042 11.6581 34.9722C11.8341 34.7322 11.9861 34.4522 12.1141 34.1322C12.2421 33.8042 12.3381 33.4482 12.4021 33.0642L12.7261 31.2042ZM15.8917 32.0322C15.8997 31.9922 15.9037 31.9482 15.9037 31.9002C15.9117 31.8442 15.9157 31.7882 15.9157 31.7322C15.9157 31.5082 15.8517 31.3522 15.7237 31.2642C15.5957 31.1682 15.4277 31.1202 15.2197 31.1202L15.5917 30.2802C16.0237 30.2802 16.3517 30.3802 16.5757 30.5802C16.7997 30.7802 16.9117 31.0842 16.9117 31.4922V31.7322C17.1437 31.1562 17.4397 30.7482 17.7997 30.5082C18.1677 30.2602 18.5837 30.1362 19.0477 30.1362C19.2317 30.1362 19.3877 30.1522 19.5157 30.1842C19.6517 30.2082 19.7637 30.2402 19.8517 30.2802L19.3717 31.3362C19.2757 31.2962 19.1757 31.2682 19.0717 31.2522C18.9677 31.2362 18.8477 31.2282 18.7117 31.2282C18.4957 31.2282 18.2797 31.2842 18.0637 31.3962C17.8477 31.5002 17.6437 31.6802 17.4517 31.9362C17.2597 32.1922 17.0837 32.5282 16.9237 32.9442C16.7637 33.3602 16.6317 33.8762 16.5277 34.4922L16.1797 36.5202H15.0997L15.8917 32.0322ZM20.2334 30.5082H21.3374L21.9134 28.5402H22.7414L22.3934 30.5082H24.1214L23.9654 31.4442H22.2254L21.7214 34.3602C21.6894 34.5202 21.6734 34.6722 21.6734 34.8162C21.6734 35.0962 21.7534 35.3162 21.9134 35.4762C22.0814 35.6282 22.3054 35.7042 22.5854 35.7042C22.8174 35.7042 23.0094 35.6722 23.1614 35.6082C23.3214 35.5362 23.4694 35.4642 23.6054 35.3922L23.7374 36.3282C23.5854 36.4162 23.3934 36.4922 23.1614 36.5562C22.9374 36.6282 22.6854 36.6642 22.4054 36.6642C22.1814 36.6642 21.9614 36.6282 21.7454 36.5562C21.5294 36.4922 21.3374 36.3922 21.1694 36.2562C21.0014 36.1122 20.8654 35.9282 20.7614 35.7042C20.6574 35.4802 20.6054 35.2122 20.6054 34.9002C20.6054 34.8122 20.6094 34.7242 20.6174 34.6362C20.6254 34.5402 20.6374 34.4322 20.6534 34.3122L21.1454 31.4442H20.0774L20.2334 30.5082Z" fill="#181725"/>
<path d="M10.1777 20.3518C9.52916 20.3518 8.90718 20.0942 8.44858 19.6356C7.98999 19.177 7.73235 18.555 7.73235 17.9064C7.73235 17.2579 7.98999 16.6359 8.44858 16.1773C8.90718 15.7187 9.52916 15.4611 10.1777 15.4611C10.8263 15.4611 11.4483 15.7187 11.9068 16.1773C12.3654 16.6359 12.6231 17.2579 12.6231 17.9064C12.6231 18.555 12.3654 19.177 11.9068 19.6356C11.4483 20.0942 10.8263 20.3518 10.1777 20.3518ZM18.7365 20.3518C18.0879 20.3518 17.466 20.0942 17.0074 19.6356C16.5488 19.177 16.2911 18.555 16.2911 17.9064C16.2911 17.2579 16.5488 16.6359 17.0074 16.1773C17.466 15.7187 18.0879 15.4611 18.7365 15.4611C19.385 15.4611 20.007 15.7187 20.4656 16.1773C20.9242 16.6359 21.1819 17.2579 21.1819 17.9064C21.1819 18.555 20.9242 19.177 20.4656 19.6356C20.007 20.0942 19.385 20.3518 18.7365 20.3518ZM2.79516 3.1401C2.48993 3.13025 2.2005 3.00208 1.98807 2.78269C1.77564 2.56329 1.65686 2.26988 1.65686 1.96449C1.65686 1.6591 1.77564 1.36569 1.98807 1.14629C2.2005 0.926896 2.48993 0.798724 2.79516 0.788879L4.20247 0.788879C5.30533 0.788879 6.25902 1.55428 6.49867 2.63024L8.03069 9.52861C8.27033 10.6046 9.22402 11.37 10.3269 11.37H19.5117L21.2748 4.31509H9.84881C9.54646 4.3013 9.26106 4.17148 9.05197 3.95263C8.84289 3.73379 8.72621 3.44277 8.72621 3.1401C8.72621 2.83743 8.84289 2.54641 9.05197 2.32756C9.26106 2.10872 9.54646 1.9789 9.84881 1.9651H21.2748C21.6322 1.96499 21.985 2.04638 22.3062 2.20308C22.6275 2.35977 22.9088 2.58764 23.1287 2.86938C23.3487 3.15111 23.5015 3.47928 23.5756 3.82895C23.6497 4.17862 23.6431 4.54058 23.5563 4.88731L21.7932 11.9397C21.6661 12.4486 21.3725 12.9004 20.9591 13.2232C20.5457 13.546 20.0362 13.7213 19.5117 13.7212H10.3269C9.25678 13.7213 8.21864 13.3565 7.3839 12.6869C6.54917 12.0174 5.96776 11.0831 5.73571 10.0385L4.20247 3.1401H2.79516Z" fill="#181725"/>
</svg>
