<svg width="43" height="38" viewBox="0 0 43 38" fill="none" xmlns="http://www.w3.org/2000/svg">
<path d="M26.324 14.2375C27.1119 14.2375 27.8921 14.0823 28.6201 13.7808C29.348 13.4793 30.0095 13.0373 30.5666 12.4802C31.1238 11.923 31.5657 11.2616 31.8673 10.5336C32.1688 9.80569 32.324 9.02547 32.324 8.23754C32.324 7.44961 32.1688 6.6694 31.8673 5.94144C31.5657 5.21349 31.1238 4.55205 30.5666 3.9949C30.0095 3.43775 29.348 2.99579 28.6201 2.69427C27.8921 2.39274 27.1119 2.23754 26.324 2.23754C24.7327 2.23754 23.2066 2.86968 22.0813 3.9949C20.9561 5.12012 20.324 6.64624 20.324 8.23754C20.324 9.82884 20.9561 11.355 22.0813 12.4802C23.2066 13.6054 24.7327 14.2375 26.324 14.2375ZM32.644 13.1435L36.224 16.7235C36.3194 16.8159 36.3955 16.9263 36.4479 17.0483C36.5002 17.1703 36.5277 17.3016 36.5287 17.4344C36.5298 17.5671 36.5044 17.6988 36.454 17.8217C36.4037 17.9445 36.3293 18.0561 36.2354 18.1499C36.1414 18.2438 36.0297 18.3179 35.9068 18.3681C35.7838 18.4183 35.6521 18.4435 35.5194 18.4423C35.3866 18.441 35.2554 18.4134 35.1334 18.3609C35.0115 18.3084 34.9012 18.2321 34.809 18.1365L31.229 14.5565C29.6215 15.8044 27.5988 16.3927 25.5727 16.2017C23.5467 16.0108 21.6696 15.0549 20.3235 13.5286C18.9775 12.0024 18.2637 10.0205 18.3274 7.98647C18.3912 5.95244 19.2277 4.01917 20.6666 2.58019C22.1056 1.14121 24.0389 0.30471 26.0729 0.240969C28.1069 0.177228 30.0888 0.891039 31.6151 2.23709C33.1413 3.58315 34.0972 5.46026 34.2882 7.4863C34.4792 9.51234 33.8908 11.535 32.643 13.1425L32.644 13.1435Z" fill="#181725"/>
<rect x="8.17944" y="0.23704" width="8.85499" height="2.39923" rx="1.19961" fill="#181725"/>
<rect x="8.17944" y="7.67523" width="6.46414" height="2.39923" rx="1.19961" fill="#181725"/>
<rect x="8.17944" y="15.1138" width="8.85499" height="2.39923" rx="1.19961" fill="#181725"/>
<path d="M3.13283 26.2865H8.11283L7.94483 27.2705H4.09283L3.64883 29.8265H6.94883L6.78083 30.7865H3.48083L2.96483 33.7025H6.80483L6.63683 34.6865H1.65683L3.13283 26.2865ZM10.0087 31.4585L8.18474 29.0105L9.12074 28.3145L10.7047 30.7865L12.8887 28.3865L13.6327 29.0825L11.2447 31.5185L13.1647 34.1345L12.2647 34.7945L10.5607 32.2025L8.14874 34.7585L7.44074 34.0745L10.0087 31.4585ZM14.7621 28.4465C15.5941 28.4465 16.0101 28.8065 16.0101 29.5265V29.7785C16.2421 29.3465 16.5381 28.9945 16.8981 28.7225C17.2661 28.4425 17.6981 28.3025 18.1941 28.3025C18.5141 28.3025 18.8061 28.3665 19.0701 28.4945C19.3341 28.6225 19.5581 28.8025 19.7421 29.0345C19.9261 29.2585 20.0661 29.5305 20.1621 29.8505C20.2661 30.1625 20.3181 30.5105 20.3181 30.8945C20.3181 31.4865 20.2301 32.0265 20.0541 32.5145C19.8781 32.9945 19.6461 33.4065 19.3581 33.7505C19.0701 34.0945 18.7381 34.3625 18.3621 34.5545C17.9941 34.7385 17.6141 34.8305 17.2221 34.8305C16.8381 34.8305 16.4781 34.7345 16.1421 34.5425C15.8141 34.3505 15.5581 34.1145 15.3741 33.8345L14.7621 37.3265H13.6821L14.9301 30.1865C14.9541 30.0585 14.9661 29.9465 14.9661 29.8505C14.9661 29.4745 14.7701 29.2865 14.3781 29.2865L14.7621 28.4465ZM17.1261 33.8705C17.4061 33.8705 17.6701 33.8025 17.9181 33.6665C18.1741 33.5225 18.3981 33.3265 18.5901 33.0785C18.7821 32.8225 18.9341 32.5185 19.0461 32.1665C19.1581 31.8145 19.2141 31.4265 19.2141 31.0025C19.2141 30.4505 19.0901 30.0185 18.8421 29.7065C18.5941 29.3945 18.2701 29.2385 17.8701 29.2385C17.6301 29.2385 17.3941 29.2985 17.1621 29.4185C16.9381 29.5305 16.7341 29.6905 16.5501 29.8985C16.3661 30.1065 16.2021 30.3625 16.0581 30.6665C15.9221 30.9625 15.8221 31.2905 15.7581 31.6505L15.5421 32.8625C15.7181 33.1905 15.9421 33.4425 16.2141 33.6185C16.4941 33.7865 16.7981 33.8705 17.1261 33.8705ZM22.5689 32.5265C22.5529 32.6385 22.5409 32.7345 22.5329 32.8145C22.5249 32.8945 22.5209 32.9665 22.5209 33.0305C22.5209 33.3105 22.6009 33.5265 22.7609 33.6785C22.9209 33.8225 23.1409 33.8945 23.4209 33.8945C23.5569 33.8945 23.6929 33.8785 23.8289 33.8465C23.9649 33.8145 24.0889 33.7705 24.2009 33.7145L24.3089 34.5905C24.1649 34.6625 23.9969 34.7185 23.8049 34.7585C23.6129 34.8065 23.4049 34.8305 23.1809 34.8305C22.9409 34.8305 22.7129 34.7945 22.4969 34.7225C22.2889 34.6585 22.1049 34.5585 21.9449 34.4225C21.7929 34.2865 21.6689 34.1145 21.5729 33.9065C21.4849 33.6905 21.4409 33.4425 21.4409 33.1625C21.4409 33.0505 21.4449 32.9505 21.4529 32.8625C21.4609 32.7665 21.4729 32.6625 21.4889 32.5505L22.6649 25.8065H23.7449L22.5689 32.5265ZM27.7631 33.8705C28.1231 33.8705 28.4431 33.8025 28.7231 33.6665C29.0031 33.5305 29.2431 33.3425 29.4431 33.1025C29.6431 32.8625 29.7951 32.5825 29.8991 32.2625C30.0031 31.9425 30.0551 31.5945 30.0551 31.2185C30.0551 30.9465 30.0111 30.6905 29.9231 30.4505C29.8431 30.2105 29.7231 30.0025 29.5631 29.8265C29.4111 29.6505 29.2231 29.5145 28.9991 29.4185C28.7751 29.3145 28.5191 29.2625 28.2311 29.2625C27.8791 29.2625 27.5591 29.3305 27.2711 29.4665C26.9911 29.6025 26.7511 29.7905 26.5511 30.0305C26.3511 30.2705 26.1991 30.5545 26.0951 30.8825C25.9911 31.2025 25.9391 31.5465 25.9391 31.9145C25.9391 32.1865 25.9791 32.4425 26.0591 32.6825C26.1391 32.9225 26.2551 33.1305 26.4071 33.3065C26.5671 33.4825 26.7591 33.6225 26.9831 33.7265C27.2151 33.8225 27.4751 33.8705 27.7631 33.8705ZM27.7271 34.8305C27.2791 34.8305 26.8751 34.7625 26.5151 34.6265C26.1631 34.4825 25.8631 34.2865 25.6151 34.0385C25.3671 33.7905 25.1751 33.4945 25.0391 33.1505C24.9031 32.7985 24.8351 32.4185 24.8351 32.0105C24.8351 31.4905 24.9151 31.0065 25.0751 30.5585C25.2351 30.1025 25.4631 29.7105 25.7591 29.3825C26.0631 29.0465 26.4271 28.7825 26.8511 28.5905C27.2751 28.3985 27.7471 28.3025 28.2671 28.3025C28.7071 28.3025 29.1071 28.3745 29.4671 28.5185C29.8271 28.6545 30.1311 28.8465 30.3791 29.0945C30.6271 29.3425 30.8191 29.6425 30.9551 29.9945C31.0911 30.3385 31.1591 30.7145 31.1591 31.1225C31.1591 31.6425 31.0791 32.1305 30.9191 32.5865C30.7591 33.0345 30.5271 33.4265 30.2231 33.7625C29.9271 34.0905 29.5671 34.3505 29.1431 34.5425C28.7191 34.7345 28.2471 34.8305 27.7271 34.8305ZM33.0141 30.1985C33.0221 30.1585 33.0261 30.1145 33.0261 30.0665C33.0341 30.0105 33.0381 29.9545 33.0381 29.8985C33.0381 29.6745 32.9741 29.5185 32.8461 29.4305C32.7181 29.3345 32.5501 29.2865 32.3421 29.2865L32.7141 28.4465C33.1461 28.4465 33.4741 28.5465 33.6981 28.7465C33.9221 28.9465 34.0341 29.2505 34.0341 29.6585V29.8985C34.2661 29.3225 34.5621 28.9145 34.9221 28.6745C35.2901 28.4265 35.7061 28.3025 36.1701 28.3025C36.3541 28.3025 36.5101 28.3185 36.6381 28.3505C36.7741 28.3745 36.8861 28.4065 36.9741 28.4465L36.4941 29.5025C36.3981 29.4625 36.2981 29.4345 36.1941 29.4185C36.0901 29.4025 35.9701 29.3945 35.8341 29.3945C35.6181 29.3945 35.4021 29.4505 35.1861 29.5625C34.9701 29.6665 34.7661 29.8465 34.5741 30.1025C34.3821 30.3585 34.2061 30.6945 34.0461 31.1105C33.8861 31.5265 33.7541 32.0425 33.6501 32.6585L33.3021 34.6865H32.2221L33.0141 30.1985ZM39.4762 34.8305C39.0762 34.8305 38.7122 34.7665 38.3842 34.6385C38.0562 34.5025 37.7722 34.3145 37.5322 34.0745C37.3002 33.8265 37.1162 33.5265 36.9802 33.1745C36.8522 32.8225 36.7882 32.4265 36.7882 31.9865C36.7882 31.4905 36.8682 31.0185 37.0282 30.5705C37.1882 30.1225 37.4122 29.7305 37.7002 29.3945C37.9962 29.0585 38.3522 28.7945 38.7682 28.6025C39.1842 28.4025 39.6482 28.3025 40.1602 28.3025C40.5042 28.3025 40.8122 28.3545 41.0842 28.4585C41.3562 28.5625 41.5842 28.6985 41.7682 28.8665C41.9602 29.0345 42.1042 29.2305 42.2002 29.4545C42.3042 29.6785 42.3562 29.9105 42.3562 30.1505C42.3562 30.5985 42.2482 30.9625 42.0322 31.2425C41.8242 31.5225 41.5602 31.7465 41.2402 31.9145C40.9202 32.0745 40.5682 32.1865 40.1842 32.2505C39.8002 32.3065 39.4362 32.3345 39.0922 32.3345C38.8762 32.3345 38.6602 32.3265 38.4442 32.3105C38.2362 32.2865 38.0522 32.2625 37.8922 32.2385C37.9562 32.7665 38.1402 33.1705 38.4442 33.4505C38.7562 33.7305 39.1602 33.8705 39.6562 33.8705C40.0562 33.8705 40.4122 33.8185 40.7242 33.7145C41.0362 33.6105 41.3002 33.5065 41.5162 33.4025L41.6122 34.3625C41.3722 34.4745 41.0682 34.5825 40.7002 34.6865C40.3402 34.7825 39.9322 34.8305 39.4762 34.8305ZM40.0762 29.2145C39.7962 29.2145 39.5322 29.2705 39.2842 29.3825C39.0442 29.4865 38.8282 29.6345 38.6362 29.8265C38.4522 30.0185 38.2962 30.2465 38.1682 30.5105C38.0482 30.7745 37.9642 31.0625 37.9162 31.3745C38.1002 31.4145 38.2842 31.4425 38.4682 31.4585C38.6522 31.4745 38.8602 31.4825 39.0922 31.4825C39.7722 31.4825 40.3042 31.3905 40.6882 31.2065C41.0802 31.0145 41.2762 30.6905 41.2762 30.2345C41.2762 29.9545 41.1642 29.7145 40.9402 29.5145C40.7242 29.3145 40.4362 29.2145 40.0762 29.2145Z" fill="#181725"/>
</svg>
