<svg width="29" height="42" viewBox="0 0 29 42" fill="none" xmlns="http://www.w3.org/2000/svg">
<path d="M11.759 9.75407C12.289 10.2291 12.991 10.5181 13.759 10.5181H15.759C16.4972 10.5191 17.2096 10.2469 17.759 9.75407H11.759ZM11.759 9.75407C11.2096 10.2469 10.4972 10.5191 9.75904 10.5181L11.759 9.75407ZM10.809 4.51807V4.46807H10.759H7.75904C7.48056 4.46807 7.21349 4.57869 7.01657 4.7756C6.81966 4.97252 6.70904 5.23959 6.70904 5.51807V7.51807C6.70904 7.79654 6.81966 8.06362 7.01657 8.26053C7.21349 8.45744 7.48056 8.56807 7.75904 8.56807H9.75904C10.0375 8.56807 10.3046 8.45744 10.5015 8.26053C10.6984 8.06362 10.809 7.79654 10.809 7.51807V4.51807ZM7.76904 10.4681H7.71904V10.5181V20.4831V20.5331H7.76904H9.75904H9.80904V20.4831V15.5181C9.80904 15.0009 10.0145 14.5049 10.3802 14.1392C10.7459 13.7735 11.2419 13.5681 11.759 13.5681H13.759C14.2762 13.5681 14.7722 13.7735 15.1379 14.1392C15.5036 14.5049 15.709 15.0009 15.709 15.5181V20.4831V20.5331H15.759H21.772H21.822V20.4831V10.5181V10.4681H21.772H19.759C19.0038 10.4681 18.3136 10.1839 17.7924 9.71683L17.759 9.68691L17.7256 9.71685C17.1854 10.2015 16.4849 10.4691 15.7591 10.4681H15.759H13.759C13.0038 10.4681 12.3136 10.1839 11.7924 9.71683L11.759 9.68691L11.7256 9.71685C11.1854 10.2015 10.4849 10.4691 9.75911 10.4681H9.75904H7.76904ZM5.7672 9.69519C5.47076 9.42442 5.23273 9.09573 5.06794 8.72925C4.89671 8.34848 4.80845 7.93564 4.80904 7.51814V7.51807V5.51807C4.80904 4.73568 5.11984 3.98533 5.67307 3.4321C6.2263 2.87887 6.97665 2.56807 7.75904 2.56807H21.759C22.5414 2.56807 23.2918 2.87887 23.845 3.4321C24.3982 3.98533 24.709 4.73568 24.709 5.51807V7.51807C24.709 8.3854 24.3354 9.1661 23.7385 9.70598L23.722 9.72087V9.74307V20.4831C23.722 21.0002 23.5166 21.4962 23.1509 21.8619C22.7852 22.2276 22.2892 22.4331 21.772 22.4331H14.132V22.4322L14.1227 22.4339C14.0028 22.4566 13.8811 22.468 13.759 22.4681H11.759C11.637 22.468 11.5152 22.4566 11.3953 22.4339L11.3955 22.4331H11.386H7.77004C7.25286 22.4331 6.75687 22.2276 6.39118 21.8619C6.02548 21.4962 5.82004 21.0002 5.82004 20.4831V9.76307V9.64237L5.7672 9.69519ZM13.809 15.5181V15.4681H13.759H11.759H11.709V15.5181V20.4831V20.5331H11.759H13.759V20.4841H13.809V20.4831V20.4331V15.5181ZM16.809 4.51807V4.46807H16.759H12.759H12.709V4.51807V7.51807C12.709 7.79654 12.8197 8.06362 13.0166 8.26053C13.2135 8.45744 13.4806 8.56807 13.759 8.56807H15.759C16.0375 8.56807 16.3046 8.45744 16.5015 8.26053C16.6984 8.06362 16.809 7.79654 16.809 7.51807V4.51807ZM18.759 4.46807H18.709V4.51807V7.51807C18.709 7.79654 18.8197 8.06362 19.0166 8.26053C19.2135 8.45744 19.4806 8.56807 19.759 8.56807H21.759C22.0375 8.56807 22.3046 8.45744 22.5015 8.26053C22.6984 8.06362 22.809 7.79654 22.809 7.51807V5.51807C22.809 5.23959 22.6984 4.97252 22.5015 4.7756C22.3046 4.57869 22.0375 4.46807 21.759 4.46807H18.759ZM18.759 13.5681H19.759C20.011 13.5681 20.2526 13.6682 20.4308 13.8463C20.6089 14.0245 20.709 14.2661 20.709 14.5181V17.5181C20.709 17.77 20.6089 18.0117 20.4308 18.1898C20.2526 18.368 20.011 18.4681 19.759 18.4681H18.759C18.5071 18.4681 18.2654 18.368 18.0873 18.1898C17.9091 18.0117 17.809 17.77 17.809 17.5181V14.5181C17.809 14.2661 17.9091 14.0245 18.0873 13.8463C18.2654 13.6682 18.5071 13.5681 18.759 13.5681Z" fill="#53B175" stroke="white" stroke-width="0.1"/>
<path d="M4.93986 36.5625C4.93986 36.3945 4.91586 36.2425 4.86786 36.1065C4.81986 35.9625 4.73186 35.8185 4.60386 35.6745C4.47586 35.5305 4.30386 35.3825 4.08786 35.2305C3.87986 35.0705 3.60786 34.8985 3.27186 34.7145C2.95986 34.5385 2.69586 34.3665 2.47986 34.1985C2.26386 34.0305 2.08386 33.8545 1.93986 33.6705C1.80386 33.4865 1.70386 33.2865 1.63986 33.0705C1.58386 32.8545 1.55586 32.6145 1.55586 32.3505C1.55586 32.0145 1.62386 31.7105 1.75986 31.4385C1.89586 31.1665 2.08786 30.9345 2.33586 30.7425C2.58386 30.5505 2.87986 30.4025 3.22386 30.2985C3.56786 30.1945 3.94786 30.1425 4.36386 30.1425C4.86786 30.1425 5.31986 30.2065 5.71986 30.3345C6.12786 30.4545 6.51186 30.6185 6.87186 30.8265L6.28386 31.7625C5.99586 31.5785 5.69186 31.4265 5.37186 31.3065C5.05986 31.1865 4.69186 31.1265 4.26786 31.1265C3.78786 31.1265 3.40386 31.2305 3.11586 31.4385C2.83586 31.6385 2.69586 31.9025 2.69586 32.2305C2.69586 32.3825 2.71986 32.5225 2.76786 32.6505C2.81586 32.7785 2.89186 32.9025 2.99586 33.0225C3.10786 33.1425 3.25586 33.2665 3.43986 33.3945C3.62386 33.5225 3.85586 33.6585 4.13586 33.8025C4.52786 34.0105 4.85186 34.2185 5.10786 34.4265C5.36386 34.6265 5.56386 34.8305 5.70786 35.0385C5.85986 35.2465 5.96386 35.4665 6.01986 35.6985C6.07586 35.9305 6.10386 36.1825 6.10386 36.4545C6.10386 36.8225 6.03186 37.1545 5.88786 37.4505C5.74386 37.7465 5.53986 37.9985 5.27586 38.2065C5.01186 38.4065 4.69586 38.5625 4.32786 38.6745C3.95986 38.7785 3.55586 38.8305 3.11586 38.8305C2.53986 38.8305 2.01986 38.7545 1.55586 38.6025C1.09186 38.4425 0.683861 38.2225 0.331861 37.9425L1.07586 37.0185C1.34786 37.2665 1.66386 37.4665 2.02386 37.6185C2.39186 37.7625 2.79586 37.8345 3.23586 37.8345C3.75586 37.8345 4.16786 37.7225 4.47186 37.4985C4.78386 37.2665 4.93986 36.9545 4.93986 36.5625ZM12.1286 34.2705C12.1286 33.9665 12.0366 33.7225 11.8526 33.5385C11.6766 33.3465 11.4446 33.2505 11.1566 33.2505C10.9406 33.2505 10.7086 33.3065 10.4606 33.4185C10.2206 33.5305 9.98461 33.7065 9.75261 33.9465C9.52861 34.1785 9.32461 34.4745 9.14061 34.8345C8.96461 35.1945 8.83261 35.6265 8.74461 36.1305L8.30061 38.6865H7.22061L8.78061 29.8065H9.86061L9.16461 33.7545C9.41261 33.3145 9.73661 32.9625 10.1366 32.6985C10.5366 32.4345 10.9646 32.3025 11.4206 32.3025C11.6926 32.3025 11.9406 32.3465 12.1646 32.4345C12.3886 32.5225 12.5766 32.6465 12.7286 32.8065C12.8886 32.9585 13.0086 33.1385 13.0886 33.3465C13.1766 33.5545 13.2206 33.7785 13.2206 34.0185C13.2206 34.2265 13.1966 34.4785 13.1486 34.7745L12.4646 38.6865H11.3846L12.0446 34.9545C12.0846 34.7625 12.1086 34.6225 12.1166 34.5345C12.1246 34.4465 12.1286 34.3585 12.1286 34.2705ZM17.215 37.8705C17.575 37.8705 17.895 37.8025 18.175 37.6665C18.455 37.5305 18.695 37.3425 18.895 37.1025C19.095 36.8625 19.247 36.5825 19.351 36.2625C19.455 35.9425 19.507 35.5945 19.507 35.2185C19.507 34.9465 19.463 34.6905 19.375 34.4505C19.295 34.2105 19.175 34.0025 19.015 33.8265C18.863 33.6505 18.675 33.5145 18.451 33.4185C18.227 33.3145 17.971 33.2625 17.683 33.2625C17.331 33.2625 17.011 33.3305 16.723 33.4665C16.443 33.6025 16.203 33.7905 16.003 34.0305C15.803 34.2705 15.651 34.5545 15.547 34.8825C15.443 35.2025 15.391 35.5465 15.391 35.9145C15.391 36.1865 15.431 36.4425 15.511 36.6825C15.591 36.9225 15.707 37.1305 15.859 37.3065C16.019 37.4825 16.211 37.6225 16.435 37.7265C16.667 37.8225 16.927 37.8705 17.215 37.8705ZM17.179 38.8305C16.731 38.8305 16.327 38.7625 15.967 38.6265C15.615 38.4825 15.315 38.2865 15.067 38.0385C14.819 37.7905 14.627 37.4945 14.491 37.1505C14.355 36.7985 14.287 36.4185 14.287 36.0105C14.287 35.4905 14.367 35.0065 14.527 34.5585C14.687 34.1025 14.915 33.7105 15.211 33.3825C15.515 33.0465 15.879 32.7825 16.303 32.5905C16.727 32.3985 17.199 32.3025 17.719 32.3025C18.159 32.3025 18.559 32.3745 18.919 32.5185C19.279 32.6545 19.583 32.8465 19.831 33.0945C20.079 33.3425 20.271 33.6425 20.407 33.9945C20.543 34.3385 20.611 34.7145 20.611 35.1225C20.611 35.6425 20.531 36.1305 20.371 36.5865C20.211 37.0345 19.979 37.4265 19.675 37.7625C19.379 38.0905 19.019 38.3505 18.595 38.5425C18.171 38.7345 17.699 38.8305 17.179 38.8305ZM22.1555 32.4465C22.9875 32.4465 23.4035 32.8065 23.4035 33.5265V33.7785C23.6355 33.3465 23.9315 32.9945 24.2915 32.7225C24.6595 32.4425 25.0915 32.3025 25.5875 32.3025C25.9075 32.3025 26.1995 32.3665 26.4635 32.4945C26.7275 32.6225 26.9515 32.8025 27.1355 33.0345C27.3195 33.2585 27.4595 33.5305 27.5555 33.8505C27.6595 34.1625 27.7115 34.5105 27.7115 34.8945C27.7115 35.4865 27.6235 36.0265 27.4475 36.5145C27.2715 36.9945 27.0395 37.4065 26.7515 37.7505C26.4635 38.0945 26.1315 38.3625 25.7555 38.5545C25.3875 38.7385 25.0075 38.8305 24.6155 38.8305C24.2315 38.8305 23.8715 38.7345 23.5355 38.5425C23.2075 38.3505 22.9515 38.1145 22.7675 37.8345L22.1555 41.3265H21.0755L22.3235 34.1865C22.3475 34.0585 22.3595 33.9465 22.3595 33.8505C22.3595 33.4745 22.1635 33.2865 21.7715 33.2865L22.1555 32.4465ZM24.5195 37.8705C24.7995 37.8705 25.0635 37.8025 25.3115 37.6665C25.5675 37.5225 25.7915 37.3265 25.9835 37.0785C26.1755 36.8225 26.3275 36.5185 26.4395 36.1665C26.5515 35.8145 26.6075 35.4265 26.6075 35.0025C26.6075 34.4505 26.4835 34.0185 26.2355 33.7065C25.9875 33.3945 25.6635 33.2385 25.2635 33.2385C25.0235 33.2385 24.7875 33.2985 24.5555 33.4185C24.3315 33.5305 24.1275 33.6905 23.9435 33.8985C23.7595 34.1065 23.5955 34.3625 23.4515 34.6665C23.3155 34.9625 23.2155 35.2905 23.1515 35.6505L22.9355 36.8625C23.1115 37.1905 23.3355 37.4425 23.6075 37.6185C23.8875 37.7865 24.1915 37.8705 24.5195 37.8705Z" fill="#53B175"/>
</svg>
