<svg width="29" height="42" viewBox="0 0 29 42" fill="none" xmlns="http://www.w3.org/2000/svg">
<path d="M11.9518 9.58781C12.4818 10.0628 13.1838 10.3518 13.9518 10.3518H15.9518C16.6899 10.3528 17.4023 10.0807 17.9518 9.58781H11.9518ZM11.9518 9.58781C11.4023 10.0807 10.6899 10.3528 9.95179 10.3518L11.9518 9.58781ZM11.0018 4.35181V4.30181H10.9518H7.95179C7.67331 4.30181 7.40624 4.41243 7.20932 4.60934C7.01241 4.80626 6.90179 5.07333 6.90179 5.35181V7.35181C6.90179 7.63028 7.01241 7.89736 7.20932 8.09427C7.40624 8.29118 7.67331 8.40181 7.95179 8.40181H9.95179C10.2303 8.40181 10.4973 8.29118 10.6942 8.09427C10.8912 7.89736 11.0018 7.63028 11.0018 7.35181V4.35181ZM7.96179 10.3018H7.91179V10.3518V20.3168V20.3668H7.96179H9.95179H10.0018V20.3168V15.3518C10.0018 14.8346 10.2072 14.3386 10.5729 13.9729C10.9386 13.6073 11.4346 13.4018 11.9518 13.4018H13.9518C14.469 13.4018 14.9649 13.6073 15.3306 13.9729C15.6963 14.3386 15.9018 14.8346 15.9018 15.3518V20.3168V20.3668H15.9518H21.9648H22.0148V20.3168V10.3518V10.3018H21.9648H19.9518C19.1965 10.3018 18.5063 10.0177 17.9852 9.55057L17.9518 9.52065L17.9184 9.55059C17.3781 10.0352 16.6776 10.3028 15.9519 10.3018H15.9518H13.9518C13.1965 10.3018 12.5063 10.0177 11.9852 9.55057L11.9518 9.52065L11.9184 9.55059C11.3781 10.0352 10.6776 10.3028 9.95185 10.3018H9.95179H7.96179ZM5.95995 9.52893C5.66351 9.25816 5.42548 8.92947 5.26068 8.56299C5.08946 8.18222 5.0012 7.76938 5.00179 7.35188V7.35181V5.35181C5.00179 4.56942 5.31259 3.81907 5.86582 3.26584C6.41905 2.71261 7.1694 2.40181 7.95179 2.40181H21.9518C22.7342 2.40181 23.4845 2.71261 24.0378 3.26584C24.591 3.81907 24.9018 4.56942 24.9018 5.35181V7.35181C24.9018 8.21914 24.5282 8.99984 23.9312 9.53972L23.9148 9.55461V9.57681V20.3168C23.9148 20.834 23.7093 21.33 23.3436 21.6957C22.9779 22.0614 22.482 22.2668 21.9648 22.2668H14.3248V22.2659L14.3155 22.2677C14.1956 22.2904 14.0738 22.3018 13.9518 22.3018H11.9518C11.8298 22.3018 11.708 22.2904 11.5881 22.2677L11.5882 22.2668H11.5788H7.96279C7.44561 22.2668 6.94962 22.0614 6.58393 21.6957C6.21823 21.33 6.01279 20.834 6.01279 20.3168V9.59681V9.47611L5.95995 9.52893ZM14.0018 15.3518V15.3018H13.9518H11.9518H11.9018V15.3518V20.3168V20.3668H11.9518H13.9518V20.3178H14.0018V20.3168V20.2668V15.3518ZM17.0018 4.35181V4.30181H16.9518H12.9518H12.9018V4.35181V7.35181C12.9018 7.63028 13.0124 7.89736 13.2093 8.09427C13.4062 8.29118 13.6733 8.40181 13.9518 8.40181H15.9518C16.2303 8.40181 16.4973 8.29118 16.6942 8.09427C16.8912 7.89736 17.0018 7.63028 17.0018 7.35181V4.35181ZM18.9518 4.30181H18.9018V4.35181V7.35181C18.9018 7.63028 19.0124 7.89736 19.2093 8.09427C19.4062 8.29118 19.6733 8.40181 19.9518 8.40181H21.9518C22.2303 8.40181 22.4973 8.29118 22.6942 8.09427C22.8912 7.89736 23.0018 7.63028 23.0018 7.35181V5.35181C23.0018 5.07333 22.8912 4.80626 22.6942 4.60934C22.4973 4.41243 22.2303 4.30181 21.9518 4.30181H18.9518ZM18.9518 13.4018H19.9518C20.2037 13.4018 20.4454 13.5019 20.6235 13.6801C20.8017 13.8582 20.9018 14.0999 20.9018 14.3518V17.3518C20.9018 17.6038 20.8017 17.8454 20.6235 18.0236C20.4454 18.2017 20.2037 18.3018 19.9518 18.3018H18.9518C18.6998 18.3018 18.4582 18.2017 18.28 18.0236C18.1019 17.8454 18.0018 17.6038 18.0018 17.3518V14.3518C18.0018 14.0999 18.1019 13.8582 18.28 13.6801C18.4582 13.5019 18.6998 13.4018 18.9518 13.4018Z" fill="#181725" stroke="white" stroke-width="0.1"/>
<path d="M5.13261 36.3962C5.13261 36.2282 5.10861 36.0762 5.06061 35.9402C5.01261 35.7962 4.92461 35.6522 4.79661 35.5082C4.66861 35.3642 4.49661 35.2162 4.28061 35.0642C4.07261 34.9042 3.80061 34.7322 3.46461 34.5482C3.15261 34.3722 2.88861 34.2002 2.67261 34.0322C2.45661 33.8642 2.27661 33.6882 2.13261 33.5042C1.99661 33.3202 1.89661 33.1202 1.83261 32.9042C1.77661 32.6882 1.74861 32.4482 1.74861 32.1842C1.74861 31.8482 1.81661 31.5442 1.95261 31.2722C2.08861 31.0002 2.28061 30.7682 2.52861 30.5762C2.77661 30.3842 3.07261 30.2362 3.41661 30.1322C3.76061 30.0282 4.14061 29.9762 4.55661 29.9762C5.06061 29.9762 5.51261 30.0402 5.91261 30.1682C6.32061 30.2882 6.70461 30.4522 7.06461 30.6602L6.47661 31.5962C6.18861 31.4122 5.88461 31.2602 5.56461 31.1402C5.25261 31.0202 4.88461 30.9602 4.46061 30.9602C3.98061 30.9602 3.59661 31.0642 3.30861 31.2722C3.02861 31.4722 2.88861 31.7362 2.88861 32.0642C2.88861 32.2162 2.91261 32.3562 2.96061 32.4842C3.00861 32.6122 3.08461 32.7362 3.18861 32.8562C3.30061 32.9762 3.44861 33.1002 3.63261 33.2282C3.81661 33.3562 4.04861 33.4922 4.32861 33.6362C4.72061 33.8442 5.04461 34.0522 5.30061 34.2602C5.55661 34.4602 5.75661 34.6642 5.90061 34.8722C6.05261 35.0802 6.15661 35.3002 6.21261 35.5322C6.26861 35.7642 6.29661 36.0162 6.29661 36.2882C6.29661 36.6562 6.22461 36.9882 6.08061 37.2842C5.93661 37.5802 5.73261 37.8322 5.46861 38.0402C5.20461 38.2402 4.88861 38.3962 4.52061 38.5082C4.15261 38.6122 3.74861 38.6642 3.30861 38.6642C2.73261 38.6642 2.21261 38.5882 1.74861 38.4362C1.28461 38.2762 0.87661 38.0562 0.52461 37.7762L1.26861 36.8522C1.54061 37.1002 1.85661 37.3002 2.21661 37.4522C2.58461 37.5962 2.98861 37.6682 3.42861 37.6682C3.94861 37.6682 4.36061 37.5562 4.66461 37.3322C4.97661 37.1002 5.13261 36.7882 5.13261 36.3962ZM12.3214 34.1042C12.3214 33.8002 12.2294 33.5562 12.0454 33.3722C11.8694 33.1802 11.6374 33.0842 11.3494 33.0842C11.1334 33.0842 10.9014 33.1402 10.6534 33.2522C10.4134 33.3642 10.1774 33.5402 9.94536 33.7802C9.72136 34.0122 9.51736 34.3082 9.33336 34.6682C9.15736 35.0282 9.02536 35.4602 8.93736 35.9642L8.49336 38.5202H7.41336L8.97336 29.6402H10.0534L9.35736 33.5882C9.60536 33.1482 9.92936 32.7962 10.3294 32.5322C10.7294 32.2682 11.1574 32.1362 11.6134 32.1362C11.8854 32.1362 12.1334 32.1802 12.3574 32.2682C12.5814 32.3562 12.7694 32.4802 12.9214 32.6402C13.0814 32.7922 13.2014 32.9722 13.2814 33.1802C13.3694 33.3882 13.4134 33.6122 13.4134 33.8522C13.4134 34.0602 13.3894 34.3122 13.3414 34.6082L12.6574 38.5202H11.5774L12.2374 34.7882C12.2774 34.5962 12.3014 34.4562 12.3094 34.3682C12.3174 34.2802 12.3214 34.1922 12.3214 34.1042ZM17.4078 37.7042C17.7678 37.7042 18.0878 37.6362 18.3678 37.5002C18.6478 37.3642 18.8878 37.1762 19.0878 36.9362C19.2878 36.6962 19.4398 36.4162 19.5438 36.0962C19.6478 35.7762 19.6998 35.4282 19.6998 35.0522C19.6998 34.7802 19.6558 34.5242 19.5678 34.2842C19.4878 34.0442 19.3678 33.8362 19.2078 33.6602C19.0558 33.4842 18.8678 33.3482 18.6438 33.2522C18.4198 33.1482 18.1638 33.0962 17.8758 33.0962C17.5238 33.0962 17.2038 33.1642 16.9158 33.3002C16.6358 33.4362 16.3958 33.6242 16.1958 33.8642C15.9958 34.1042 15.8438 34.3882 15.7398 34.7162C15.6358 35.0362 15.5838 35.3802 15.5838 35.7482C15.5838 36.0202 15.6238 36.2762 15.7038 36.5162C15.7838 36.7562 15.8998 36.9642 16.0518 37.1402C16.2118 37.3162 16.4038 37.4562 16.6278 37.5602C16.8598 37.6562 17.1198 37.7042 17.4078 37.7042ZM17.3718 38.6642C16.9238 38.6642 16.5198 38.5962 16.1598 38.4602C15.8078 38.3162 15.5078 38.1202 15.2598 37.8722C15.0118 37.6242 14.8198 37.3282 14.6838 36.9842C14.5478 36.6322 14.4798 36.2522 14.4798 35.8442C14.4798 35.3242 14.5598 34.8402 14.7198 34.3922C14.8798 33.9362 15.1078 33.5442 15.4038 33.2162C15.7078 32.8802 16.0718 32.6162 16.4958 32.4242C16.9198 32.2322 17.3918 32.1362 17.9118 32.1362C18.3518 32.1362 18.7518 32.2082 19.1118 32.3522C19.4718 32.4882 19.7758 32.6802 20.0238 32.9282C20.2718 33.1762 20.4638 33.4762 20.5998 33.8282C20.7358 34.1722 20.8038 34.5482 20.8038 34.9562C20.8038 35.4762 20.7238 35.9642 20.5638 36.4202C20.4038 36.8682 20.1718 37.2602 19.8678 37.5962C19.5718 37.9242 19.2118 38.1842 18.7878 38.3762C18.3638 38.5682 17.8918 38.6642 17.3718 38.6642ZM22.3482 32.2802C23.1802 32.2802 23.5962 32.6402 23.5962 33.3602V33.6122C23.8282 33.1802 24.1242 32.8282 24.4842 32.5562C24.8522 32.2762 25.2842 32.1362 25.7802 32.1362C26.1002 32.1362 26.3922 32.2002 26.6562 32.3282C26.9202 32.4562 27.1442 32.6362 27.3282 32.8682C27.5122 33.0922 27.6522 33.3642 27.7482 33.6842C27.8522 33.9962 27.9042 34.3442 27.9042 34.7282C27.9042 35.3202 27.8162 35.8602 27.6402 36.3482C27.4642 36.8282 27.2322 37.2402 26.9442 37.5842C26.6562 37.9282 26.3242 38.1962 25.9482 38.3882C25.5802 38.5722 25.2002 38.6642 24.8082 38.6642C24.4242 38.6642 24.0642 38.5682 23.7282 38.3762C23.4002 38.1842 23.1442 37.9482 22.9602 37.6682L22.3482 41.1602H21.2682L22.5162 34.0202C22.5402 33.8922 22.5522 33.7802 22.5522 33.6842C22.5522 33.3082 22.3562 33.1202 21.9642 33.1202L22.3482 32.2802ZM24.7122 37.7042C24.9922 37.7042 25.2562 37.6362 25.5042 37.5002C25.7602 37.3562 25.9842 37.1602 26.1762 36.9122C26.3682 36.6562 26.5202 36.3522 26.6322 36.0002C26.7442 35.6482 26.8002 35.2602 26.8002 34.8362C26.8002 34.2842 26.6762 33.8522 26.4282 33.5402C26.1802 33.2282 25.8562 33.0722 25.4562 33.0722C25.2162 33.0722 24.9802 33.1322 24.7482 33.2522C24.5242 33.3642 24.3202 33.5242 24.1362 33.7322C23.9522 33.9402 23.7882 34.1962 23.6442 34.5002C23.5082 34.7962 23.4082 35.1242 23.3442 35.4842L23.1282 36.6962C23.3042 37.0242 23.5282 37.2762 23.8002 37.4522C24.0802 37.6202 24.3842 37.7042 24.7122 37.7042Z" fill="#181725"/>
</svg>
