<svg width="415" height="896" viewBox="0 0 415 896" fill="none" xmlns="http://www.w3.org/2000/svg">
<g clip-path="url(#clip0_1_8)">
<rect width="414" height="896" transform="translate(0.0527344)" fill="#53B175"/>
<g opacity="0.1">
<rect x="140.053" y="883" width="134" height="5" rx="2.5" fill="black"/>
</g>
<g clip-path="url(#clip1_1_8)">
<rect opacity="0.35" x="375.553" y="22.8333" width="21" height="10.3333" rx="2.16667" stroke="white"/>
<path opacity="0.4" d="M398.053 26V30C398.857 29.6612 399.381 28.8731 399.381 28C399.381 27.1269 398.857 26.3388 398.053 26Z" fill="white"/>
<rect x="377.053" y="24.3333" width="18" height="7.33333" rx="1.33333" fill="white"/>
<path fill-rule="evenodd" clip-rule="evenodd" d="M357.012 24.6079C359.459 24.608 361.812 25.4594 363.585 26.9862C363.718 27.1041 363.932 27.1026 364.063 26.9829L365.339 25.8162C365.406 25.7555 365.443 25.6733 365.442 25.5877C365.442 25.5021 365.404 25.4202 365.336 25.3602C360.683 21.3207 353.341 21.3207 348.688 25.3602C348.62 25.4202 348.582 25.502 348.582 25.5876C348.581 25.6732 348.618 25.7555 348.685 25.8162L349.961 26.9829C350.093 27.1028 350.306 27.1043 350.44 26.9862C352.213 25.4593 354.566 24.6079 357.012 24.6079ZM357.012 28.4036C358.357 28.4035 359.653 28.856 360.649 29.6732C360.784 29.7892 360.996 29.7867 361.127 29.6676L362.402 28.5009C362.469 28.4397 362.507 28.3567 362.506 28.2704C362.505 28.1842 362.466 28.1018 362.397 28.0419C359.363 25.4855 354.664 25.4855 351.63 28.0419C351.562 28.1018 351.523 28.1842 351.522 28.2705C351.521 28.3568 351.558 28.4398 351.626 28.5009L352.9 29.6676C353.031 29.7867 353.244 29.7892 353.378 29.6732C354.374 28.8566 355.669 28.4041 357.012 28.4036ZM359.565 30.9574C359.567 31.0439 359.53 31.1273 359.461 31.1879L357.257 33.2036C357.192 33.2628 357.104 33.2961 357.012 33.2961C356.92 33.2961 356.832 33.2628 356.767 33.2036L354.562 31.1879C354.494 31.1272 354.457 31.0438 354.459 30.9573C354.461 30.8708 354.502 30.7889 354.573 30.7309C355.981 29.652 358.043 29.652 359.451 30.7309C359.522 30.7889 359.563 30.8709 359.565 30.9574Z" fill="white"/>
<path fill-rule="evenodd" clip-rule="evenodd" d="M341.927 22.6667H340.823C340.214 22.6667 339.72 23.1145 339.72 23.6667V32.3334C339.72 32.8857 340.214 33.3334 340.823 33.3334H341.927C342.537 33.3334 343.031 32.8857 343.031 32.3334V23.6667C343.031 23.1145 342.537 22.6667 341.927 22.6667ZM335.671 25.0001H336.775C337.385 25.0001 337.879 25.4478 337.879 26.0001V32.3334C337.879 32.8857 337.385 33.3334 336.775 33.3334H335.671C335.062 33.3334 334.568 32.8857 334.568 32.3334V26.0001C334.568 25.4478 335.062 25.0001 335.671 25.0001ZM331.623 27.3334H330.519C329.91 27.3334 329.415 27.7811 329.415 28.3334V32.3334C329.415 32.8857 329.91 33.3334 330.519 33.3334H331.623C332.233 33.3334 332.727 32.8857 332.727 32.3334V28.3334C332.727 27.7811 332.233 27.3334 331.623 27.3334ZM326.471 29.3334H325.367C324.758 29.3334 324.263 29.7811 324.263 30.3334V32.3334C324.263 32.8857 324.758 33.3334 325.367 33.3334H326.471C327.081 33.3334 327.575 32.8857 327.575 32.3334V30.3334C327.575 29.7811 327.081 29.3334 326.471 29.3334Z" fill="white"/>
<path d="M44.5049 21.088C42.5589 21.088 41.0469 22.292 41.0469 24.182C41.0469 25.988 42.4469 27.15 44.3929 27.15C45.6109 27.15 46.6469 26.716 47.2209 25.862V26.212C47.2209 28.662 45.9609 29.908 43.9729 29.908C43.2589 29.908 42.6009 29.782 42.0829 29.446L41.5509 30.538C42.1809 30.93 43.0629 31.112 43.9869 31.112C46.7309 31.112 48.6209 29.32 48.6209 25.974C48.6209 22.852 47.1369 21.088 44.5049 21.088ZM44.6309 26.016C43.2589 26.016 42.4049 25.274 42.4049 24.126C42.4049 22.964 43.2869 22.222 44.5609 22.222C46.0869 22.222 46.8989 23.104 46.8989 24.112C46.8989 25.19 45.9749 26.016 44.6309 26.016ZM50.6115 25.428C51.1155 25.428 51.5355 25.022 51.5355 24.462C51.5355 23.902 51.1155 23.51 50.6115 23.51C50.0935 23.51 49.6595 23.902 49.6595 24.462C49.6595 25.022 50.0935 25.428 50.6115 25.428ZM50.6115 31.084C51.1155 31.084 51.5355 30.678 51.5355 30.118C51.5355 29.558 51.1155 29.166 50.6115 29.166C50.0935 29.166 49.6595 29.558 49.6595 30.118C49.6595 30.678 50.0935 31.084 50.6115 31.084ZM61.1054 27.388H59.2434V25.26H57.9274V27.388H54.1614L58.9634 21.2H57.4514L52.4394 27.612V28.592H57.8854V31H59.2434V28.592H61.1054V27.388ZM60.7491 21.2V22.418H62.9611V31H64.3471V21.2H60.7491Z" fill="white"/>
</g>
<path fill-rule="evenodd" clip-rule="evenodd" d="M110.543 418.642C110.816 416.203 109.087 414 106.647 413.727C104.208 413.436 102.005 415.183 101.732 417.623C101.404 420.408 101.86 423.74 102.442 427.162C104.062 427.654 105.628 428.364 107.084 429.201C108.65 425.505 110.179 421.846 110.543 418.642ZM127.674 429.347C126.709 427.089 124.088 426.07 121.83 427.035C118.863 428.327 115.786 430.858 112.691 433.461C113.857 434.608 114.949 435.9 115.877 437.302C119.391 436.865 122.759 436.337 125.362 435.209C127.619 434.207 128.657 431.586 127.674 429.347ZM120.192 417.441C118.226 415.984 115.44 416.385 113.984 418.351C111.763 421.337 110.27 425.797 108.65 430.148C109.196 430.512 109.706 430.876 110.197 431.258C110.561 431.549 110.944 431.859 111.326 432.168C115.04 429.365 118.899 426.634 121.12 423.649C122.577 421.682 122.158 418.897 120.192 417.441Z" fill="white"/>
<path d="M111.745 453.086C110.379 454.56 108.923 455.926 107.376 457.255C105.209 459.13 103.007 460.95 100.767 462.698C98.3643 461.223 96.6349 460.477 96.3436 460.859C96.0887 461.205 97.09 462.479 98.8923 464.136C92.8483 468.633 86.4584 472.601 79.5952 475.86C78.5211 476.37 77.3924 476.734 76.2819 477.134C75.9907 477.243 75.6812 477.243 75.5537 477.262C73.8061 477.462 73.2782 476.989 73.351 475.387C73.5694 470.398 75.1168 465.72 76.7189 461.059C77.1558 459.785 77.6109 458.511 78.0842 457.236C80.5054 458.711 82.2349 459.476 82.5262 459.093C82.8357 458.675 81.3793 457 78.9398 454.906C80.6875 450.391 82.6354 445.949 84.9292 441.689C89.5168 445.094 93.5947 447.333 94.0498 446.714C94.5049 446.095 91.137 442.8 86.4948 439.359L86.2946 439.214C87.0956 437.848 87.933 436.483 88.825 435.154C89.9355 433.479 91.3009 431.95 92.648 430.457C94.4503 428.473 96.7805 427.799 99.3838 428.382C107.722 430.239 113.511 435.027 116.241 443.237C116.788 444.912 116.296 446.55 115.44 448.061C114.858 449.081 114.221 450.045 113.511 450.956C109.105 447.733 105.282 445.658 104.845 446.241C104.427 446.823 107.467 449.827 111.745 453.086Z" fill="white"/>
<path d="M165.449 423.403C159.678 423.403 155.928 425.715 153.652 430.102H153.525V427.371C153.525 425.405 151.923 423.821 149.957 423.821C147.991 423.821 146.407 425.405 146.407 427.371V457.573C146.407 459.539 147.991 461.141 149.957 461.141H150.303C152.269 461.141 153.871 459.539 153.871 457.573V439.587C153.871 433.706 157.239 429.792 162.864 429.792C168.325 429.792 170.947 432.96 170.947 438.622V457.573C170.947 459.539 172.531 461.141 174.497 461.141H174.843C176.809 461.141 178.393 459.539 178.393 457.573V437.22C178.393 428.627 173.696 423.403 165.449 423.403Z" fill="white"/>
<path d="M201.422 423.33C190.99 423.33 184.182 430.939 184.182 442.609C184.182 454.296 190.917 461.578 201.731 461.578C208.43 461.578 213.965 458.611 216.459 453.987C217.387 452.294 216.113 450.2 214.183 450.2H212.29C211.343 450.2 210.524 450.746 210.032 451.565C208.594 454.041 205.572 455.534 201.877 455.534C195.76 455.534 191.7 451.274 191.7 444.811V444.374H215.548C216.968 444.374 218.134 443.209 218.134 441.789V441.753C218.134 430.448 211.671 423.33 201.422 423.33ZM191.737 439.077C192.155 433.342 196.033 429.41 201.403 429.41C206.828 429.41 210.506 433.27 210.67 439.077H191.737Z" fill="white"/>
<path d="M252.85 448.598H250.866C249.792 448.598 248.863 449.272 248.463 450.273C247.17 453.568 244.221 455.334 240.034 455.334C234.045 455.334 230.003 450.509 230.003 442.481C230.003 434.635 233.99 429.629 239.998 429.629C244.33 429.629 247.225 431.777 248.408 434.835C248.809 435.855 249.737 436.565 250.848 436.565H252.832C254.561 436.565 255.854 434.872 255.29 433.233C253.378 427.608 247.917 423.33 239.925 423.33C229.384 423.33 222.43 430.866 222.43 442.481C222.43 454.296 229.402 461.578 239.998 461.578C247.589 461.578 253.232 457.864 255.308 451.984C255.89 450.327 254.616 448.598 252.85 448.598Z" fill="white"/>
<path d="M275.206 455.279C275.078 455.261 274.932 455.243 274.805 455.243C272.347 454.951 271.2 453.422 271.2 450.546V429.701H275.406C277.044 429.701 278.355 428.372 278.355 426.752C278.355 425.132 277.044 423.821 275.406 423.821H271.2V419.143C271.2 418.123 270.782 417.195 270.108 416.521C269.435 415.848 268.524 415.429 267.487 415.429C265.448 415.429 263.791 417.104 263.791 419.143V423.821H261.57C259.95 423.821 258.621 425.132 258.621 426.752C258.621 428.372 259.95 429.701 261.57 429.701H263.791V451.31C263.791 458.52 266.667 461.378 274.131 461.378C274.15 461.378 274.168 461.378 274.168 461.378C275.023 461.378 275.806 461.123 276.462 460.668C276.48 460.668 276.498 460.65 276.498 460.65C277.263 460.103 277.772 459.211 277.772 458.21C277.772 456.717 276.662 455.461 275.206 455.279Z" fill="white"/>
<path d="M299.418 423.33C293.592 423.33 288.786 425.696 286.329 429.355C285.928 429.974 285.728 430.648 285.728 431.303C285.728 433.124 287.184 434.817 289.241 434.817C290.443 434.817 291.59 434.18 292.154 433.124C293.356 430.866 295.923 429.483 299.218 429.483C304.206 429.483 307.046 431.831 307.046 436.091V436.546C307.046 437.912 305.99 439.04 304.624 439.113L296.978 439.55C287.767 440.133 282.724 443.919 282.724 450.455C282.724 457.118 287.876 461.505 295.34 461.505C300.419 461.505 305.061 458.975 307.119 454.915H307.282V457.573C307.282 458.556 307.683 459.448 308.32 460.103C308.975 460.741 309.867 461.141 310.851 461.141C312.817 461.141 314.4 459.539 314.4 457.573V435.545C314.4 428.154 308.52 423.33 299.418 423.33ZM307.046 447.123C307.046 452.02 302.859 455.57 297.324 455.57C293.028 455.57 290.243 453.513 290.243 450.309C290.243 447.014 292.901 445.121 297.98 444.811L307.046 444.192V447.123Z" fill="white"/>
<path d="M338.158 423.439C333.752 423.439 330.33 425.951 329.146 430.102H329.019V427.371C329.019 425.405 327.417 423.821 325.469 423.821C323.503 423.821 321.901 425.405 321.901 427.371V457.409C321.901 458.429 322.32 459.375 322.993 460.049C323.667 460.722 324.595 461.141 325.633 461.141C327.69 461.141 329.365 459.466 329.365 457.409V438.877C329.365 433.615 332.46 430.211 337.375 430.211C337.575 430.211 337.794 430.211 337.994 430.229C339.523 430.284 340.761 429.028 340.761 427.499V426.06C340.761 424.622 339.596 423.439 338.158 423.439Z" fill="white"/>
<path d="M277.773 458.21C277.773 459.211 277.263 460.103 276.498 460.649C276.498 460.649 276.48 460.668 276.462 460.668C275.988 460.995 275.424 461.177 274.805 461.177C273.149 461.177 271.82 459.848 271.82 458.21C271.82 456.572 273.149 455.243 274.805 455.243C274.933 455.243 275.078 455.261 275.206 455.279C276.662 455.461 277.773 456.717 277.773 458.21Z" fill="white"/>
<path d="M151.608 477.353C152.028 477.353 152.402 477.273 152.728 477.115C153.055 476.956 153.335 476.737 153.568 476.457C153.802 476.177 153.979 475.85 154.1 475.477C154.222 475.103 154.282 474.697 154.282 474.259C154.282 473.941 154.231 473.643 154.128 473.363C154.035 473.083 153.895 472.84 153.708 472.635C153.531 472.429 153.312 472.271 153.05 472.159C152.789 472.037 152.49 471.977 152.154 471.977C151.744 471.977 151.37 472.056 151.034 472.215C150.708 472.373 150.428 472.593 150.194 472.873C149.961 473.153 149.784 473.484 149.662 473.867C149.541 474.24 149.48 474.641 149.48 475.071C149.48 475.388 149.527 475.687 149.62 475.967C149.714 476.247 149.849 476.489 150.026 476.695C150.213 476.9 150.437 477.063 150.698 477.185C150.969 477.297 151.272 477.353 151.608 477.353ZM151.566 478.473C151.044 478.473 150.572 478.393 150.152 478.235C149.742 478.067 149.392 477.838 149.102 477.549C148.813 477.259 148.589 476.914 148.43 476.513C148.272 476.102 148.192 475.659 148.192 475.183C148.192 474.576 148.286 474.011 148.472 473.489C148.659 472.957 148.925 472.499 149.27 472.117C149.625 471.725 150.05 471.417 150.544 471.193C151.039 470.969 151.59 470.857 152.196 470.857C152.71 470.857 153.176 470.941 153.596 471.109C154.016 471.267 154.371 471.491 154.66 471.781C154.95 472.07 155.174 472.42 155.332 472.831C155.491 473.232 155.57 473.671 155.57 474.147C155.57 474.753 155.477 475.323 155.29 475.855C155.104 476.377 154.833 476.835 154.478 477.227C154.133 477.609 153.713 477.913 153.218 478.137C152.724 478.361 152.173 478.473 151.566 478.473ZM166.679 471.963C166.436 471.963 166.17 472.033 165.881 472.173C165.601 472.303 165.325 472.509 165.055 472.789C164.793 473.069 164.555 473.428 164.341 473.867C164.126 474.296 163.967 474.809 163.865 475.407L163.361 478.305H162.101L163.375 471.025H164.593L164.285 472.705C164.574 472.145 164.961 471.697 165.447 471.361C165.932 471.025 166.45 470.857 167.001 470.857C167.318 470.857 167.607 470.908 167.869 471.011C168.13 471.113 168.349 471.258 168.527 471.445C168.713 471.622 168.853 471.832 168.947 472.075C169.049 472.317 169.101 472.579 169.101 472.859C169.101 473.101 169.073 473.395 169.017 473.741L168.219 478.305H166.959L167.729 473.951C167.775 473.727 167.803 473.563 167.813 473.461C167.822 473.358 167.827 473.255 167.827 473.153C167.827 472.789 167.719 472.499 167.505 472.285C167.299 472.07 167.024 471.963 166.679 471.963ZM177.371 475.785C177.352 475.915 177.338 476.027 177.329 476.121C177.319 476.214 177.315 476.298 177.315 476.373C177.315 476.699 177.408 476.951 177.595 477.129C177.781 477.297 178.038 477.381 178.365 477.381C178.523 477.381 178.682 477.362 178.841 477.325C178.999 477.287 179.144 477.236 179.275 477.171L179.401 478.193C179.233 478.277 179.037 478.342 178.813 478.389C178.589 478.445 178.346 478.473 178.085 478.473C177.805 478.473 177.539 478.431 177.287 478.347C177.044 478.272 176.829 478.155 176.643 477.997C176.465 477.838 176.321 477.637 176.209 477.395C176.106 477.143 176.055 476.853 176.055 476.527C176.055 476.396 176.059 476.279 176.069 476.177C176.078 476.065 176.092 475.943 176.111 475.813L177.483 467.945H178.743L177.371 475.785ZM187.198 478.305H185.938L187.212 471.025H188.472L187.198 478.305ZM188.136 469.779C187.875 469.779 187.674 469.704 187.534 469.555C187.404 469.396 187.338 469.214 187.338 469.009C187.338 468.71 187.432 468.472 187.618 468.295C187.805 468.108 188.038 468.015 188.318 468.015C188.58 468.015 188.776 468.094 188.906 468.253C189.046 468.402 189.116 468.579 189.116 468.785C189.116 469.083 189.023 469.326 188.836 469.513C188.65 469.69 188.416 469.779 188.136 469.779ZM199.585 471.963C199.342 471.963 199.076 472.033 198.787 472.173C198.507 472.303 198.231 472.509 197.961 472.789C197.699 473.069 197.461 473.428 197.247 473.867C197.032 474.296 196.873 474.809 196.771 475.407L196.267 478.305H195.007L196.281 471.025H197.499L197.191 472.705C197.48 472.145 197.867 471.697 198.353 471.361C198.838 471.025 199.356 470.857 199.907 470.857C200.224 470.857 200.513 470.908 200.775 471.011C201.036 471.113 201.255 471.258 201.433 471.445C201.619 471.622 201.759 471.832 201.853 472.075C201.955 472.317 202.007 472.579 202.007 472.859C202.007 473.101 201.979 473.395 201.923 473.741L201.125 478.305H199.865L200.635 473.951C200.681 473.727 200.709 473.563 200.719 473.461C200.728 473.358 200.733 473.255 200.733 473.153C200.733 472.789 200.625 472.499 200.411 472.285C200.205 472.07 199.93 471.963 199.585 471.963ZM211.887 478.473C211.42 478.473 210.996 478.398 210.613 478.249C210.23 478.09 209.899 477.871 209.619 477.591C209.348 477.301 209.134 476.951 208.975 476.541C208.826 476.13 208.751 475.668 208.751 475.155C208.751 474.576 208.844 474.025 209.031 473.503C209.218 472.98 209.479 472.523 209.815 472.131C210.16 471.739 210.576 471.431 211.061 471.207C211.546 470.973 212.088 470.857 212.685 470.857C213.086 470.857 213.446 470.917 213.763 471.039C214.08 471.16 214.346 471.319 214.561 471.515C214.785 471.711 214.953 471.939 215.065 472.201C215.186 472.462 215.247 472.733 215.247 473.013C215.247 473.535 215.121 473.96 214.869 474.287C214.626 474.613 214.318 474.875 213.945 475.071C213.572 475.257 213.161 475.388 212.713 475.463C212.265 475.528 211.84 475.561 211.439 475.561C211.187 475.561 210.935 475.551 210.683 475.533C210.44 475.505 210.226 475.477 210.039 475.449C210.114 476.065 210.328 476.536 210.683 476.863C211.047 477.189 211.518 477.353 212.097 477.353C212.564 477.353 212.979 477.292 213.343 477.171C213.707 477.049 214.015 476.928 214.267 476.807L214.379 477.927C214.099 478.057 213.744 478.183 213.315 478.305C212.895 478.417 212.419 478.473 211.887 478.473ZM212.587 471.921C212.26 471.921 211.952 471.986 211.663 472.117C211.383 472.238 211.131 472.411 210.907 472.635C210.692 472.859 210.51 473.125 210.361 473.433C210.221 473.741 210.123 474.077 210.067 474.441C210.282 474.487 210.496 474.52 210.711 474.539C210.926 474.557 211.168 474.567 211.439 474.567C212.232 474.567 212.853 474.459 213.301 474.245C213.758 474.021 213.987 473.643 213.987 473.111C213.987 472.784 213.856 472.504 213.595 472.271C213.343 472.037 213.007 471.921 212.587 471.921ZM235.814 470.857C236.374 470.857 236.86 470.913 237.27 471.025C237.69 471.137 238.036 471.249 238.306 471.361L237.088 478.389C236.976 479.033 236.804 479.555 236.57 479.957C236.337 480.367 236.071 480.689 235.772 480.923C235.474 481.165 235.156 481.329 234.82 481.413C234.484 481.506 234.153 481.553 233.826 481.553C233.192 481.553 232.65 481.422 232.202 481.161C231.764 480.909 231.404 480.605 231.124 480.251L232.104 479.523C232.562 480.148 233.164 480.461 233.91 480.461C234.377 480.461 234.788 480.288 235.142 479.943C235.497 479.597 235.749 479.009 235.898 478.179L236.136 476.807C235.866 477.227 235.539 477.581 235.156 477.871C234.774 478.16 234.34 478.305 233.854 478.305C233.518 478.305 233.192 478.244 232.874 478.123C232.557 477.992 232.272 477.805 232.02 477.563C231.768 477.32 231.568 477.017 231.418 476.653C231.269 476.289 231.194 475.873 231.194 475.407C231.194 474.735 231.311 474.119 231.544 473.559C231.778 472.999 232.1 472.518 232.51 472.117C232.921 471.715 233.406 471.407 233.966 471.193C234.536 470.969 235.152 470.857 235.814 470.857ZM232.482 475.267C232.482 475.584 232.529 475.864 232.622 476.107C232.725 476.34 232.856 476.541 233.014 476.709C233.173 476.867 233.355 476.989 233.56 477.073C233.766 477.147 233.976 477.185 234.19 477.185C234.452 477.185 234.704 477.115 234.946 476.975C235.198 476.825 235.427 476.62 235.632 476.359C235.847 476.088 236.034 475.766 236.192 475.393C236.351 475.019 236.472 474.599 236.556 474.133L236.92 472.103C236.743 472.047 236.556 472.005 236.36 471.977C236.164 471.939 235.936 471.921 235.674 471.921C235.208 471.921 234.778 472.009 234.386 472.187C233.994 472.355 233.658 472.588 233.378 472.887C233.098 473.185 232.879 473.54 232.72 473.951C232.562 474.352 232.482 474.791 232.482 475.267ZM245.908 473.069C245.918 473.022 245.922 472.971 245.922 472.915C245.932 472.849 245.936 472.784 245.936 472.719C245.936 472.457 245.862 472.275 245.712 472.173C245.563 472.061 245.367 472.005 245.124 472.005L245.558 471.025C246.062 471.025 246.445 471.141 246.706 471.375C246.968 471.608 247.098 471.963 247.098 472.439V472.719C247.369 472.047 247.714 471.571 248.134 471.291C248.564 471.001 249.049 470.857 249.59 470.857C249.805 470.857 249.987 470.875 250.136 470.913C250.295 470.941 250.426 470.978 250.528 471.025L249.968 472.257C249.856 472.21 249.74 472.177 249.618 472.159C249.497 472.14 249.357 472.131 249.198 472.131C248.946 472.131 248.694 472.196 248.442 472.327C248.19 472.448 247.952 472.658 247.728 472.957C247.504 473.255 247.299 473.647 247.112 474.133C246.926 474.618 246.772 475.22 246.65 475.939L246.244 478.305H244.984L245.908 473.069ZM259.227 477.353C259.647 477.353 260.021 477.273 260.347 477.115C260.674 476.956 260.954 476.737 261.187 476.457C261.421 476.177 261.598 475.85 261.719 475.477C261.841 475.103 261.901 474.697 261.901 474.259C261.901 473.941 261.85 473.643 261.747 473.363C261.654 473.083 261.514 472.84 261.327 472.635C261.15 472.429 260.931 472.271 260.669 472.159C260.408 472.037 260.109 471.977 259.773 471.977C259.363 471.977 258.989 472.056 258.653 472.215C258.327 472.373 258.047 472.593 257.813 472.873C257.58 473.153 257.403 473.484 257.281 473.867C257.16 474.24 257.099 474.641 257.099 475.071C257.099 475.388 257.146 475.687 257.239 475.967C257.333 476.247 257.468 476.489 257.645 476.695C257.832 476.9 258.056 477.063 258.317 477.185C258.588 477.297 258.891 477.353 259.227 477.353ZM259.185 478.473C258.663 478.473 258.191 478.393 257.771 478.235C257.361 478.067 257.011 477.838 256.721 477.549C256.432 477.259 256.208 476.914 256.049 476.513C255.891 476.102 255.811 475.659 255.811 475.183C255.811 474.576 255.905 474.011 256.091 473.489C256.278 472.957 256.544 472.499 256.889 472.117C257.244 471.725 257.669 471.417 258.163 471.193C258.658 470.969 259.209 470.857 259.815 470.857C260.329 470.857 260.795 470.941 261.215 471.109C261.635 471.267 261.99 471.491 262.279 471.781C262.569 472.07 262.793 472.42 262.951 472.831C263.11 473.232 263.189 473.671 263.189 474.147C263.189 474.753 263.096 475.323 262.909 475.855C262.723 476.377 262.452 476.835 262.097 477.227C261.752 477.609 261.332 477.913 260.837 478.137C260.343 478.361 259.792 478.473 259.185 478.473ZM275.236 472.495C274.993 472.345 274.736 472.224 274.466 472.131C274.204 472.028 273.91 471.977 273.584 471.977C273.192 471.977 272.837 472.056 272.52 472.215C272.202 472.373 271.932 472.593 271.708 472.873C271.484 473.143 271.311 473.465 271.19 473.839C271.068 474.212 271.008 474.613 271.008 475.043C271.008 475.752 271.185 476.317 271.54 476.737C271.894 477.147 272.38 477.353 272.996 477.353C273.35 477.353 273.663 477.311 273.934 477.227C274.204 477.143 274.452 477.045 274.676 476.933L274.83 478.039C274.596 478.141 274.312 478.239 273.976 478.333C273.649 478.426 273.252 478.473 272.786 478.473C272.328 478.473 271.913 478.398 271.54 478.249C271.166 478.09 270.844 477.866 270.574 477.577C270.303 477.287 270.093 476.947 269.944 476.555C269.794 476.153 269.72 475.705 269.72 475.211C269.72 474.623 269.808 474.067 269.986 473.545C270.172 473.022 270.438 472.56 270.784 472.159C271.129 471.757 271.544 471.44 272.03 471.207C272.515 470.973 273.066 470.857 273.682 470.857C274.12 470.857 274.508 470.913 274.844 471.025C275.18 471.127 275.483 471.258 275.754 471.417L275.236 472.495ZM284.59 478.473C284.123 478.473 283.699 478.398 283.316 478.249C282.933 478.09 282.602 477.871 282.322 477.591C282.051 477.301 281.837 476.951 281.678 476.541C281.529 476.13 281.454 475.668 281.454 475.155C281.454 474.576 281.547 474.025 281.734 473.503C281.921 472.98 282.182 472.523 282.518 472.131C282.863 471.739 283.279 471.431 283.764 471.207C284.249 470.973 284.791 470.857 285.388 470.857C285.789 470.857 286.149 470.917 286.466 471.039C286.783 471.16 287.049 471.319 287.264 471.515C287.488 471.711 287.656 471.939 287.768 472.201C287.889 472.462 287.95 472.733 287.95 473.013C287.95 473.535 287.824 473.96 287.572 474.287C287.329 474.613 287.021 474.875 286.648 475.071C286.275 475.257 285.864 475.388 285.416 475.463C284.968 475.528 284.543 475.561 284.142 475.561C283.89 475.561 283.638 475.551 283.386 475.533C283.143 475.505 282.929 475.477 282.742 475.449C282.817 476.065 283.031 476.536 283.386 476.863C283.75 477.189 284.221 477.353 284.8 477.353C285.267 477.353 285.682 477.292 286.046 477.171C286.41 477.049 286.718 476.928 286.97 476.807L287.082 477.927C286.802 478.057 286.447 478.183 286.018 478.305C285.598 478.417 285.122 478.473 284.59 478.473ZM285.29 471.921C284.963 471.921 284.655 471.986 284.366 472.117C284.086 472.238 283.834 472.411 283.61 472.635C283.395 472.859 283.213 473.125 283.064 473.433C282.924 473.741 282.826 474.077 282.77 474.441C282.985 474.487 283.199 474.52 283.414 474.539C283.629 474.557 283.871 474.567 284.142 474.567C284.935 474.567 285.556 474.459 286.004 474.245C286.461 474.021 286.69 473.643 286.69 473.111C286.69 472.784 286.559 472.504 286.298 472.271C286.046 472.037 285.71 471.921 285.29 471.921ZM295.334 473.069C295.343 473.022 295.348 472.971 295.348 472.915C295.357 472.849 295.362 472.784 295.362 472.719C295.362 472.457 295.287 472.275 295.138 472.173C294.989 472.061 294.793 472.005 294.55 472.005L294.984 471.025C295.488 471.025 295.871 471.141 296.132 471.375C296.393 471.608 296.524 471.963 296.524 472.439V472.719C296.795 472.047 297.14 471.571 297.56 471.291C297.989 471.001 298.475 470.857 299.016 470.857C299.231 470.857 299.413 470.875 299.562 470.913C299.721 470.941 299.851 470.978 299.954 471.025L299.394 472.257C299.282 472.21 299.165 472.177 299.044 472.159C298.923 472.14 298.783 472.131 298.624 472.131C298.372 472.131 298.12 472.196 297.868 472.327C297.616 472.448 297.378 472.658 297.154 472.957C296.93 473.255 296.725 473.647 296.538 474.133C296.351 474.618 296.197 475.22 296.076 475.939L295.67 478.305H294.41L295.334 473.069ZM306.634 478.305H305.374L306.648 471.025H307.908L306.634 478.305ZM307.572 469.779C307.311 469.779 307.11 469.704 306.97 469.555C306.839 469.396 306.774 469.214 306.774 469.009C306.774 468.71 306.867 468.472 307.054 468.295C307.241 468.108 307.474 468.015 307.754 468.015C308.015 468.015 308.211 468.094 308.342 468.253C308.482 468.402 308.552 468.579 308.552 468.785C308.552 469.083 308.459 469.326 308.272 469.513C308.085 469.69 307.852 469.779 307.572 469.779ZM317.578 478.473C317.112 478.473 316.687 478.398 316.304 478.249C315.922 478.09 315.59 477.871 315.31 477.591C315.04 477.301 314.825 476.951 314.666 476.541C314.517 476.13 314.442 475.668 314.442 475.155C314.442 474.576 314.536 474.025 314.722 473.503C314.909 472.98 315.17 472.523 315.506 472.131C315.852 471.739 316.267 471.431 316.752 471.207C317.238 470.973 317.779 470.857 318.376 470.857C318.778 470.857 319.137 470.917 319.454 471.039C319.772 471.16 320.038 471.319 320.252 471.515C320.476 471.711 320.644 471.939 320.756 472.201C320.878 472.462 320.938 472.733 320.938 473.013C320.938 473.535 320.812 473.96 320.56 474.287C320.318 474.613 320.01 474.875 319.636 475.071C319.263 475.257 318.852 475.388 318.404 475.463C317.956 475.528 317.532 475.561 317.13 475.561C316.878 475.561 316.626 475.551 316.374 475.533C316.132 475.505 315.917 475.477 315.73 475.449C315.805 476.065 316.02 476.536 316.374 476.863C316.738 477.189 317.21 477.353 317.788 477.353C318.255 477.353 318.67 477.292 319.034 477.171C319.398 477.049 319.706 476.928 319.958 476.807L320.07 477.927C319.79 478.057 319.436 478.183 319.006 478.305C318.586 478.417 318.11 478.473 317.578 478.473ZM318.278 471.921C317.952 471.921 317.644 471.986 317.354 472.117C317.074 472.238 316.822 472.411 316.598 472.635C316.384 472.859 316.202 473.125 316.052 473.433C315.912 473.741 315.814 474.077 315.758 474.441C315.973 474.487 316.188 474.52 316.402 474.539C316.617 474.557 316.86 474.567 317.13 474.567C317.924 474.567 318.544 474.459 318.992 474.245C319.45 474.021 319.678 473.643 319.678 473.111C319.678 472.784 319.548 472.504 319.286 472.271C319.034 472.037 318.698 471.921 318.278 471.921ZM327.44 471.291H328.728L329.4 468.995H330.366L329.96 471.291H331.976L331.794 472.383H329.764L329.176 475.785C329.139 475.971 329.12 476.149 329.12 476.317C329.12 476.643 329.214 476.9 329.4 477.087C329.596 477.264 329.858 477.353 330.184 477.353C330.455 477.353 330.679 477.315 330.856 477.241C331.043 477.157 331.216 477.073 331.374 476.989L331.528 478.081C331.351 478.183 331.127 478.272 330.856 478.347C330.595 478.431 330.301 478.473 329.974 478.473C329.713 478.473 329.456 478.431 329.204 478.347C328.952 478.272 328.728 478.155 328.532 477.997C328.336 477.829 328.178 477.614 328.056 477.353C327.935 477.091 327.874 476.779 327.874 476.415C327.874 476.312 327.879 476.209 327.888 476.107C327.898 475.995 327.912 475.869 327.93 475.729L328.504 472.383H327.258L327.44 471.291Z" fill="white"/>
</g>
<defs>
<clipPath id="clip0_1_8">
<rect width="414" height="896" fill="white" transform="translate(0.0527344)"/>
</clipPath>
<clipPath id="clip1_1_8">
<rect width="414.003" height="98.2568" fill="white" transform="translate(0.0527344)"/>
</clipPath>
</defs>
</svg>
