<svg width="9" height="16" viewBox="0 0 9 16" fill="none" xmlns="http://www.w3.org/2000/svg">
<path d="M0.71791 2.79865L0.718827 2.79955L5.11065 7.0313L5.11089 7.03153L6.1025 7.97447L0.718871 13.149C0.605898 13.2575 0.513784 13.3786 0.455745 13.5125C0.398719 13.644 0.364001 13.7877 0.364001 13.9324C0.364001 14.0841 0.386441 14.2291 0.456446 14.3644C0.512848 14.4941 0.592586 14.6261 0.696967 14.7264L0.696919 14.7264L0.698904 14.7281C0.810765 14.8249 0.935999 14.9129 1.07445 14.9683C1.21346 15.024 1.37352 15.0456 1.52017 15.0456C1.66996 15.0456 1.81831 15.0124 1.96465 14.9583L1.96465 14.9583L1.9659 14.9578C2.10434 14.9024 2.23011 14.8142 2.33243 14.7159L8.53137 8.75772C8.63527 8.65786 8.71552 8.53636 8.77259 8.40471L8.77261 8.40472L8.77314 8.4034C8.82955 8.26241 8.86433 8.11915 8.86433 7.97428C8.86433 7.82953 8.82961 7.68592 8.77259 7.55438C8.71552 7.42273 8.63527 7.30122 8.53137 7.20136L2.33243 1.24323L2.33244 1.24322L2.33144 1.24231C2.11311 1.04351 1.82687 0.945057 1.53113 0.945057C1.23306 0.945057 0.946945 1.06612 0.740777 1.26428C0.523592 1.47303 0.408077 1.73813 0.407811 2.02568C0.396567 2.31397 0.512128 2.58987 0.71791 2.79865Z" fill="#B3B3B3" stroke="#B3B3B3" stroke-width="0.1"/>
</svg>
