<svg width="9" height="16" viewBox="0 0 9 16" fill="none" xmlns="http://www.w3.org/2000/svg">
<path d="M8.27208 13.1508L8.27116 13.1498L3.87934 8.9181L3.8791 8.91787L2.88749 7.97493L8.27112 2.80044C8.38409 2.69186 8.47621 2.57078 8.53425 2.4369C8.59127 2.30535 8.62599 2.16175 8.62599 2.017C8.62599 1.86534 8.60355 1.72031 8.53354 1.58495C8.47714 1.45527 8.3974 1.32335 8.29302 1.22302L8.29307 1.22297L8.29109 1.22126C8.17922 1.12449 8.05399 1.03651 7.91554 0.981067C7.77653 0.925396 7.61647 0.903796 7.46982 0.903796C7.32003 0.903796 7.17168 0.937016 7.02534 0.991112L7.02534 0.991095L7.02409 0.991594C6.88565 1.04704 6.75988 1.13521 6.65756 1.23355L0.458625 7.19168C0.354723 7.29154 0.274473 7.41305 0.217402 7.54469L0.217383 7.54469L0.216855 7.546C0.160439 7.68699 0.125659 7.83025 0.125659 7.97512C0.125659 8.11987 0.160376 8.26348 0.217402 8.39503C0.274473 8.52668 0.354723 8.64818 0.458624 8.74804L6.65756 14.7062L6.65755 14.7062L6.65855 14.7071C6.87688 14.9059 7.16312 15.0043 7.45887 15.0043C7.75693 15.0043 8.04305 14.8833 8.24921 14.6851C8.4664 14.4764 8.58191 14.2113 8.58218 13.9237C8.59342 13.6354 8.47786 13.3595 8.27208 13.1508Z" fill="#B3B3B3" stroke="#B3B3B3" stroke-width="0.1"/>
</svg>
